<svg xmlns="http://www.w3.org/2000/svg" xmlns:xlink="http://www.w3.org/1999/xlink" width="100" zoomAndPan="magnify" viewBox="0 0 75 37.5" height="50" preserveAspectRatio="xMidYMid meet" version="1.0"><defs><g/><clipPath id="0bfd9c6b52"><path d="M 12.914062 4.417969 L 22 4.417969 L 22 32.542969 L 12.914062 32.542969 Z M 12.914062 4.417969 " clip-rule="nonzero"/></clipPath></defs><g clip-path="url(#0bfd9c6b52)"><path fill="#ffffff" d="M 20.871094 7.597656 L 21.667969 7.597656 L 21.667969 4.417969 L 20.871094 4.417969 C 18.234375 4.417969 16.097656 6.554688 16.097656 9.191406 L 16.097656 14.761719 C 16.097656 15.261719 15.863281 15.734375 15.460938 16.035156 L 13.550781 17.464844 C 13.171875 17.753906 12.9375 18.195312 12.917969 18.671875 C 12.898438 19.152344 13.09375 19.613281 13.449219 19.929688 L 15.5625 21.808594 C 15.902344 22.109375 16.097656 22.542969 16.097656 22.996094 L 16.097656 28.289062 C 16.097656 30.925781 18.234375 33.0625 20.871094 33.0625 L 21.667969 33.0625 L 21.667969 29.878906 L 20.871094 29.878906 C 19.992188 29.878906 19.28125 29.167969 19.28125 28.289062 L 19.28125 22.996094 C 19.28125 21.632812 18.699219 20.335938 17.679688 19.429688 L 17.019531 18.84375 L 17.371094 18.578125 C 18.574219 17.679688 19.28125 16.261719 19.28125 14.761719 L 19.28125 9.191406 C 19.28125 8.3125 19.992188 7.597656 20.871094 7.597656 Z M 20.871094 7.597656 " fill-opacity="1" fill-rule="evenodd"/></g><g fill="#fff2ec" fill-opacity="1"><g transform="translate(25.991965, 29.096885)"><g><path d="M 14.21875 -5.5625 L 5.3125 -5.5625 L 3.296875 0 L 0.40625 0 L 8.53125 -21.28125 L 11 -21.28125 L 19.140625 0 L 16.25 0 Z M 6.15625 -7.859375 L 13.390625 -7.859375 L 9.765625 -17.8125 Z M 6.15625 -7.859375 "/></g></g></g><g fill="#fff2ec" fill-opacity="1"><g transform="translate(45.516032, 29.096885)"><g><path d="M 2.46875 0 L 2.46875 -21.28125 L 9.421875 -21.28125 C 11.734375 -21.28125 13.472656 -20.800781 14.640625 -19.84375 C 15.804688 -18.894531 16.390625 -17.484375 16.390625 -15.609375 C 16.390625 -14.617188 16.101562 -13.738281 15.53125 -12.96875 C 14.96875 -12.207031 14.203125 -11.617188 13.234375 -11.203125 C 14.378906 -10.878906 15.285156 -10.265625 15.953125 -9.359375 C 16.617188 -8.460938 16.953125 -7.390625 16.953125 -6.140625 C 16.953125 -4.234375 16.332031 -2.734375 15.09375 -1.640625 C 13.863281 -0.546875 12.117188 0 9.859375 0 Z M 5.28125 -9.953125 L 5.28125 -2.296875 L 9.90625 -2.296875 C 11.21875 -2.296875 12.25 -2.632812 13 -3.3125 C 13.757812 -3.988281 14.140625 -4.921875 14.140625 -6.109375 C 14.140625 -8.671875 12.742188 -9.953125 9.953125 -9.953125 Z M 5.28125 -12.203125 L 9.515625 -12.203125 C 10.742188 -12.203125 11.722656 -12.507812 12.453125 -13.125 C 13.191406 -13.738281 13.5625 -14.570312 13.5625 -15.625 C 13.5625 -16.789062 13.21875 -17.640625 12.53125 -18.171875 C 11.851562 -18.703125 10.816406 -18.96875 9.421875 -18.96875 L 5.28125 -18.96875 Z M 5.28125 -12.203125 "/></g></g></g></svg>