<svg width="53" height="53" viewBox="0 0 53 53" fill="none" xmlns="http://www.w3.org/2000/svg">
<path d="M35.839 34.02C34.1743 35.4976 32.094 37.3357 28.3216 37.3357H26.0652C24.7734 37.3594 23.4898 37.1251 22.2897 36.6464C21.0896 36.1678 19.997 35.4545 19.0761 34.5483C17.3179 32.7352 16.3502 30.2991 16.385 27.7737V24.6864C16.3509 22.1621 17.3186 19.7271 19.0761 17.9147C19.997 17.0084 21.0896 16.2951 22.2897 15.8165C23.4898 15.3378 24.7734 15.1035 26.0652 15.1272H28.3216C32.0968 15.1272 34.1743 16.9626 35.839 18.4292C37.5698 19.9536 39.0612 21.2854 43.04 21.2854C43.6474 21.2849 44.2537 21.2362 44.8534 21.1396L44.8369 21.1038C44.6018 20.5121 44.326 19.9375 44.0114 19.384L41.3505 14.7778C40.151 12.7013 38.4262 10.977 36.3493 9.77823C34.2724 8.57942 31.9166 7.94829 29.5185 7.94824H24.1886C21.7906 7.94829 19.4348 8.57942 17.3579 9.77823C15.281 10.977 13.5561 12.7013 12.3566 14.7778L9.69577 19.384C8.4978 21.4618 7.86719 23.818 7.86719 26.2163C7.86719 28.6147 8.4978 30.9709 9.69577 33.0486L12.3566 37.6549C13.556 39.7317 15.2807 41.4563 17.3576 42.6556C19.4345 43.8549 21.7903 44.4865 24.1886 44.4872H29.5103C31.9085 44.4865 34.2644 43.8549 36.3413 42.6556C38.4182 41.4563 40.1429 39.7317 41.3423 37.6549L44.0031 33.0541C44.3183 32.5019 44.5941 31.9281 44.8286 31.3371L44.8451 31.3041C44.246 31.203 43.6394 31.1523 43.0318 31.1528C39.0529 31.1528 37.5615 32.4763 35.8308 34.0062" fill="white"/>
<path d="M28.3268 17.9238H26.0705C21.9155 17.9238 19.1914 20.8901 19.1914 24.6873V27.7747C19.1914 31.5747 21.921 34.5409 26.0705 34.5409H28.3268C34.3804 34.5409 33.9044 28.369 43.0453 28.369C43.9112 28.3665 44.7753 28.4457 45.6263 28.6057C45.9043 27.0357 45.9043 25.4291 45.6263 23.8591C44.775 24.0163 43.911 24.0955 43.0453 24.0957C33.9016 24.0957 34.3804 17.9238 28.3268 17.9238Z" fill="white"/>
<path d="M50.8753 30.8609C49.3189 29.7202 47.5237 28.9477 45.6252 28.6018V28.6486C45.4601 29.5578 45.2047 30.4482 44.863 31.3067C46.4308 31.5505 47.9181 32.1635 49.2023 33.0952C49.2048 33.1089 49.2048 33.1229 49.2023 33.1365C48.2965 36.0754 46.8203 38.8069 44.8583 41.175C42.8962 43.5431 40.4867 45.5013 37.7675 46.9377C35.0483 48.3741 32.0726 49.2606 29.0106 49.5464C25.9486 49.8322 22.8603 49.5118 19.9222 48.6034C16.9843 47.6965 14.254 46.2195 11.8871 44.2569C9.5202 42.2944 7.56318 39.8847 6.12786 37.1656C4.69254 34.4465 3.80703 31.4712 3.52193 28.4098C3.23684 25.3483 3.55775 22.2607 4.46631 19.3233C5.37176 16.3857 6.8474 13.6554 8.80886 11.2885C10.7703 8.92165 13.1791 6.96464 15.8975 5.52943C18.6159 4.09421 21.5905 3.20893 24.6513 2.92422C27.7121 2.63951 30.799 2.96096 33.7354 3.87017C37.3773 4.99118 40.6901 6.985 43.3857 9.67822C46.0813 12.3714 48.0781 15.6825 49.2023 19.3233C49.1998 19.3379 49.1998 19.3528 49.2023 19.3674C47.9184 20.2985 46.4307 20.9098 44.863 21.1504C45.2043 22.011 45.4596 22.9032 45.6252 23.814C45.6225 23.8285 45.6225 23.8435 45.6252 23.858C47.5231 23.5119 49.3181 22.7405 50.8753 21.6017C52.3722 20.501 52.0805 19.2408 51.8549 18.5006C49.8039 11.8532 45.1966 6.29252 39.0462 3.04164C32.8959 -0.209241 25.7061 -0.88416 19.0582 1.16532C12.4108 3.21632 6.85014 7.82364 3.59925 13.974C0.348374 20.1243 -0.326542 27.3141 1.72293 33.962C3.77331 40.6099 8.38052 46.171 14.5311 49.422C20.6816 52.673 27.8717 53.3475 34.5196 51.2973C38.6024 50.0381 42.3159 47.8006 45.337 44.7794C48.3582 41.7583 50.5957 38.0448 51.8549 33.962C52.0805 33.2218 52.3722 31.9698 50.8753 30.8637" fill="#ECEDEE"/>
<path d="M44.8533 21.1538C44.2547 21.2523 43.6493 21.3029 43.0427 21.3051C39.0638 21.3051 37.5697 19.9816 35.8444 18.4489C34.1742 16.9686 32.0994 15.1305 28.3242 15.1305H26.0679C24.7759 15.1073 23.4922 15.3421 22.2921 15.8212C21.092 16.3003 19.9995 17.014 19.0787 17.9206C17.3212 19.733 16.3536 22.168 16.3876 24.6924V27.7797C16.3528 30.305 17.3206 32.7412 19.0787 34.5542C19.9997 35.4605 21.0922 36.1738 22.2923 36.6524C23.4925 37.1311 24.776 37.3654 26.0679 37.3416H28.3242C32.0994 37.3416 34.1742 35.5036 35.8444 34.0397C37.5697 32.5153 39.0638 31.1835 43.0427 31.1835C43.6491 31.1839 44.2546 31.2326 44.8533 31.3293C45.2021 30.4667 45.4612 29.5704 45.6265 28.6547V28.608C44.7741 28.4518 43.9093 28.3735 43.0427 28.3741C33.899 28.3741 34.3778 34.5487 28.3242 34.5487H26.0679C21.9129 34.5487 19.1888 31.5797 19.1888 27.7797V24.6869C19.1888 20.8896 21.9157 17.9234 26.0679 17.9234H28.3242C34.3778 17.9234 33.9018 24.0953 43.0427 24.0953C43.9095 24.0955 44.7744 24.0153 45.6265 23.8559V23.8146C45.4616 22.9042 45.2053 22.0128 44.8615 21.1538" fill="black"/>
</svg>
